<svg id="Calque_1" data-name="Calque 1" xmlns="http://www.w3.org/2000/svg" xmlns:xlink="http://www.w3.org/1999/xlink" viewBox="0 0 1024 768">
  <defs>
    <filter id="AI_FlouGaussien_4" name="AI_FlouGaussien_4">
      <feGaussianBlur stdDeviation="3"/>
    </filter>
  </defs>
  <title>Assistance_System_Welcome_V4</title>
  <rect id="Background" x="-0.5" width="1024" height="768" fill="#f1f1f1"  stroke-miterlimit="10"/>
    <g id="Charging_circle" data-name="Charging circle">
      <!-- Shadow of the Spinning Indicators -->
      <g opacity="0.75" filter="url(#AI_FlouGaussien_4)">
        <path d="M473.049,539.952a77.567,77.567,0,0,1-27.319-26.5l-25.569,14.765a107.427,107.427,0,0,0,183.658,0l-25.582-14.773A77.881,
        77.881,0,0,1,473.049,539.952Z" fill="#44423e"/>
        <path d="M565.709,379.43a106.914,106.914,0,0,0-51.324-14.382V394.58A77.911,77.911,0,0,1,580.6,509.356l25.582,14.773A107.444,
        107.444,0,0,0,565.709,379.43Z" fill="#44423e"/>
        <path d="M418.978,418.754A107.389,107.389,0,0,0,417.8,524.127l25.58-14.772a77.914,77.914,0,0,1,66.282-114.766V365.047A107.349,
        107.349,0,0,0,418.978,418.754Z" fill="#44423e"/>
      </g>
      <!-- Spinning Indicators (black, yellow, white) -->
      <path d="M473.049,539.952a77.567,77.567,0,0,1-27.319-26.5l-25.569,14.765a107.427,107.427,0,0,0,183.658,0l-25.582-14.773A77.881,
      77.881,0,0,1,473.049,539.952Z"/>
      <path d="M565.709,379.43a106.914,106.914,0,0,0-51.324-14.382V394.58A77.911,77.911,0,0,1,580.6,509.356l25.582,14.773A107.444,
      107.444,0,0,0,565.709,379.43Z" fill="#fdc400"/>
      <path d="M418.978,418.754A107.389,107.389,0,0,0,417.8,524.127l25.58-14.772a77.914,77.914,0,0,1,66.282-114.766V365.047A107.349,
      107.349,0,0,0,418.978,418.754Z" fill="#fff"/>
    </g>
    <g id="Fix_Circle" data-name="Fix Circle">
    <!-- Logos Background -->
    <g id="Background-2" data-name="Background">
      <path d="M514.361,360.354a111.907,111.907,0,0,1,83.833,40.375l78.466-62.573A212.057,212.057,0,0,0,514.361,260Z" fill="#44423e"/>
      <path d="M425.81,400.724a111.911,111.911,0,0,1,83.829-40.37V260a212.06,212.06,0,0,0-162.292,78.147Z" fill="#44423e"/>
      <path d="M601.14,404.422a112.4,112.4,0,0,1,20.722,90.722l97.849,22.339a212.837,212.837,0,0,0-40.1-175.636Z" fill="#44423e"/>
      <path d="M558.529,574.563a112.4,112.4,0,0,1-93.064,0L421.913,665a212.86,212.86,0,0,0,180.162,0Z" fill="#44423e"/>
      <path d="M620.809,499.749a112.4,112.4,0,0,1-58.024,72.763l43.545,90.437A212.918,212.918,0,0,0,718.665,522.091Z" fill="#44423e"/>
      <path d="M402.136,495.139a112.4,112.4,0,0,1,20.729-90.722L344.4,341.836a212.829,212.829,0,0,0-40.111,175.635Z" fill="#44423e"/>
      <path d="M461.211,572.508a112.386,112.386,0,0,1-58.022-72.766l-97.858,22.336A212.926,212.926,0,0,0,417.659,662.944Z" fill="#44423e"/>
    </g>
    <!-- Statistics -->
    <g id="Logo7">
      <rect x="575.75" y="328.447" width="12.986" height="31.877" rx="2.14" ry="2.14" fill="#f8f8f8"/>
      <path d="M607.441,311.918h-3.707L597,319.169v39.015a1.935,1.935,0,0,0,1.882,2.14h8.559c1.181,0,1.365-.958,1.365-2.14V314.316C608.806,313.135,608.622,311.918,607.441,311.918Z" fill="#f8f8f8"/>
      <path d="M617.069,291.847l-16.642,4.54,4.16,4.162-16.672,16.672L574.293,303.6c-.029-.029-.064-.049-.1-.077a2.6,2.6,0,0,0-.214-.176,2.261,2.261,0,0,0-.216-.145c-.074-.044-.147-.082-.225-.119a2.575,2.575,0,0,0-.249-.105c-.077-.027-.153-.049-.232-.069s-.176-.041-.266-.055-.16-.018-.242-.023-.175-.007-.265,0-.165.013-.248.024a2.245,2.245,0,0,0-.5.119,2.388,2.388,0,0,0-.25.1c-.076.035-.15.076-.224.119a2.051,2.051,0,0,0-.233.15c-.033.024-.07.041-.1.067L549.6,320.323a2.675,2.675,0,0,0,3.344,4.177l19.261-15.426L586.024,322.9a2.675,2.675,0,0,0,3.782,0l18.563-18.564,4.163,4.161Z" fill="#f8f8f8"/>
      <path d="M566.785,317.821h-1.126l-8.8,7.371v32.992c0,1.182.183,2.14,1.365,2.14h8.559a1.935,1.935,0,0,0,1.882-2.14V319.666A1.7,1.7,0,0,0,566.785,317.821Z" fill="#f8f8f8"/>
    </g>
    <!-- Mountain -->
    <g id="Logo6"><polygon points="635.958 401.647 644.517 404.857 657.356 428.396 673.404 444.445 680.893 461.564 683.212 470.124 635.958 470.124 635.958 401.647" fill="#f8f8f8"/>
      <polygon points="704.431 470.124 702.291 458.317 692.662 458.317 687.312 470.124 704.431 470.124" fill="#f8f8f8"/>
      <polygon points="683.825 458.889 679.288 445.004 691.167 436.42 697.476 445.07 695.503 456.126 683.825 458.889" fill="#f8f8f8"/>
      <polygon points="663.938 430.957 661.635 426.659 666.985 423.046 672.334 426.631 669.21 433.745 663.938 430.957" fill="#f8f8f8"/>
      <polygon points="672.147 440.491 671.264 433.421 676.389 429.465 684.103 432.768 681.021 442.305 672.147 440.491" fill="#f8f8f8"/>
      <polygon points="656.276 421.976 653.076 411.99 661.311 406.997 668.055 412.795 665.683 420.251 656.276 421.976" fill="#f8f8f8"/>
      <polygon points="670.898 423.733 669.125 420.011 672.546 417.161 675.544 420.143 674.66 424.651 670.898 423.733" fill="#f8f8f8"/>
    </g>
    <!-- Driver -->
    <g id="Logo5">
      <path d="M640.669,602.72H622.018a3.211,3.211,0,0,1-3.129-2.486l-6.662-28.771a3.211,3.211,0,1,1,6.257-1.45L624.57,596.3h16.1a3.211,3.211,0,1,1,0,6.422Z" fill="#f8f8f8"/>
      <path d="M664.694,600.707,648.2,586.873a4.34,4.34,0,0,0-2.745-1.047h-9.07L633.928,573.9l3.058,1.934a3.887,3.887,0,0,0,2.392.566l11.607-1.27a3.731,3.731,0,0,0,2.84-1.877l-1.152,4.223a1.605,1.605,0,0,0,1.127,1.971,1.586,1.586,0,0,0,.424.057,1.608,1.608,0,0,0,1.548-1.184l3.211-11.775a1.606,1.606,0,0,0-3.1-.845l-1.58,5.792a3.9,3.9,0,0,0,0-.5,3.742,3.742,0,0,0-4.133-3.315l-10.316,1.134-10.373-6.474a3.714,3.714,0,0,0-2.242-.549,5.886,5.886,0,0,0-6.378,7.038l4.282,20.874a5.6,5.6,0,0,0,3.879,4.186,4.159,4.159,0,0,0,1.772.2H643.9l15.3,12.984a4.369,4.369,0,0,0,2.743,1.1,4.211,4.211,0,0,0,2.747-7.466Z" fill="#f8f8f8"/>
      <path d="M638.319,547.256l-4.241-1.071s-1-6.422-7.472-6.422-7.39,4.842-7.39,6.422l-.966,1.071v.79h2.232a7.814,7.814,0,0,0-1.349,4.423,7.493,7.493,0,1,0,14.985-.035,7.717,7.717,0,0,0-1.347-4.388h5.548Zm-11.685-5.113h-.008a.7.7,0,0,1-.644-.711.672.672,0,0,1,.644-.675c.6,0,3.729.275,5.887,4.44C632.513,545.2,630.092,542.143,626.634,542.143Z" fill="#f8f8f8"/>
    </g>
    <!-- Mine -->
    <g id="Logo4">
      <path d="M510.5,646.975c.045,0,.09,0,.134,0,4.115.173,14.886.771,15.03,5.894a13.483,13.483,0,0,1-1.079,4.94c2.917-4.48,4.789-9.357,4.707-12.274-.023-.821-1.07-5.4-19.479-5.4h-.067c-1.656,0-5.544,1.361-9.178,4.2-4.038,3.146-5.845,5.985-5.845,7.57,0,.861,1.05,2.6,3.692,4.881C499.076,652.38,507.037,646.976,510.5,646.975Z" fill="#f8f8f8"/>
      <path d="M517.355,663.48c2.958-3.045,5.177-8.153,5.11-10.516,0-.025-.765-2.316-11.964-2.787-2.357,0-8.948,4.869-8.948,7.108.189,1.139,2.681,3.219,5.59,4.958a37.191,37.191,0,0,0,8.326,2.725A7.466,7.466,0,0,0,517.355,663.48Z" fill="#f8f8f8"/>
      <path d="M536.121,637.454c-.064-2.27-2.823-7.66-26.994-8.68-.044,0-.088,0-.133,0a7.619,7.619,0,0,0-1.634.212,18.6,18.6,0,0,1-10.57,5.532c-4.781,3.585-8.9,8.163-8.9,11.672,0,1.35,1.172,3.439,3.656,5.907-.01-.119-.029-.242-.029-.36,0-6.745,12.8-15.462,18.225-15.462.068,0,.136,0,.2,0,6.172.259,22.329,1.158,22.546,8.842a21.712,21.712,0,0,1-2.043,8.451C533.853,647.944,536.236,641.545,536.121,637.454Z" fill="#f8f8f8"/>
      <path d="M499.53,621.022a1.649,1.649,0,0,0-2.149,2.141Z" fill="#f8f8f8"/>
      <path d="M493.87,600.086a16.007,16.007,0,1,0,16,16.007A16,16,0,0,0,493.87,600.086Zm3.849,20.2a2.373,2.373,0,0,1,3.05.381l.355.359-3.729,3.727-.358-.354a2.362,2.362,0,0,1-.381-3.046l-3.024-3.019-6.135,6.137-1.069-1.068,6.138-6.136-3.161-3.167-1.862,1.864-2.668-2.661c-1.031-1.033-.6-3.929.137-4.66s3.628-1.169,4.66-.132l2.662,2.664-1.864,1.86,3.161,3.162,4.517-4.513-4.259-4.256a11.177,11.177,0,0,1,5.833,2.686l.287-.287,1.071,1.064-.292.288a11.2,11.2,0,0,1,2.684,5.837l-4.258-4.266-4.512,4.519Z" fill="#f8f8f8"/>
      <path d="M512.5,615.133c.016.32.048.636.048.96a18.566,18.566,0,0,1-2.624,9.512c8.657.384,29.122,1.774,29.4,11.759.1,3.34-1.137,7.8-3.173,12.286a53,53,0,0,1-7.331,9.821c-3.578,3.683-7.047,5.711-9.766,5.711-8.706,0-26.394-9.324-34.168-17.593a6.161,6.161,0,0,1-.189-1.4c0-3.744,2.96-7.941,6.934-11.567a18.567,18.567,0,0,1-9.373-3.919c-2.669,3.337-4.391,6.815-4.391,10.008,0,11.383,28.9,27.708,41.187,27.708.023,0,.045-.022.068-.022l.113,0c12.285,0,27.459-25.936,27.1-38.742C546.007,618.188,524.4,615.815,512.5,615.133Z" fill="#f8f8f8"/>
      </g>
      <!-- Sensor -->
    <g id="Logo3">
      <circle cx="385.681" cy="574.02" r="5.348" fill="#f8f8f8"/>
      <path d="M406.107,594.447l3.782,3.783a34.24,34.24,0,0,0,0-48.42l-3.782,3.782A28.923,28.923,0,0,1,406.107,594.447Z" fill="#f8f8f8"/>
      <path d="M365.254,553.592l-3.782-3.782a34.24,34.24,0,0,0,0,48.42l3.782-3.783A28.923,28.923,0,0,1,365.254,553.592Z" fill="#f8f8f8"/>
      <path d="M399.3,587.639l3.783,3.783a24.614,24.614,0,0,0,0-34.8L399.3,560.4A19.283,19.283,0,0,1,399.3,587.639Z" fill="#f8f8f8"/>
      <path d="M372.063,587.639a19.285,19.285,0,0,1,0-27.238l-3.783-3.783a24.614,24.614,0,0,0,0,34.8Z" fill="#f8f8f8"/>
      <path d="M392.49,580.829l3.782,3.783a14.979,14.979,0,0,0,0-21.184l-3.782,3.782A9.642,9.642,0,0,1,392.49,580.829Z" fill="#f8f8f8"/>
      <path d="M378.872,580.829a9.641,9.641,0,0,1,0-13.619l-3.783-3.782a14.979,14.979,0,0,0,0,21.184Z" fill="#f8f8f8"/>
    </g>
    <!-- Plus -->
    <g id="Logo2">
      <path d="M358.1,466.283a3.879,3.879,0,0,1-3.882,3.841H342.693a3.876,3.876,0,0,1-3.878-3.841v-50.1a3.876,3.876,0,0,1,3.878-3.841h11.524a3.879,03.879,0,0,1,3.882,3.841Z" fill="#f8f8f8"/>
      <path d="M377.343,447a3.879,3.879,0,0,1-3.841,3.882h-50.09A3.878,3.878,0,0,1,319.569,447V435.474a3.878,3.878,0,0,1,3.843-3.882H373.5a3.879,3.879,0,0,1,3.841,3.882Z" fill="#f8f8f8"/>
      <path d="M375.2,408.066a6.42,6.42,0,1,1-6.419,6.42,6.426,6.426,0,0,1,6.419-6.42m0-4.012a10.432,10.432,0,1,0,10.431,10.432A10.432,10.432,0,0,0,375.2,404.054Z" fill="#f8f8f8"/>
      <path d="M378.413,405.613c0,.221-.18.756-.4.756H372.4c-.222,0-.4-.535-.4-.756l1.2-3.388c0-.221.18-.578.4-.578h3.21c.221,0,.4.357.4.578Z" fill="#f8f8f8"/>
      <path d="M384,410.231a.4.4,0,0,1-.567,0l-3.972-3.972a.4.4,0,0,1,0-.568l3.121-1.418a.4.4,0,0,1,.567,0l2.27,2.269a.4.4,0,0,1,0,.567Z" fill="#f8f8f8"/>
      <path d="M384.076,417.7c-.222,0-.757-.179-.757-.4v-5.617c0-.222.535-.4.757-.4l3.387,1.2c.222,0,.579.18.579.4v3.21c0,.221-.358.4-.579.4Z" fill="#f8f8f8"/>
      <path d="M379.458,423.28a.4.4,0,0,1,0-.566l3.972-3.973a.4.4,0,0,1,.567,0l1.419,3.122a.4.4,0,0,1,0,.567l-2.27,2.27a.4.4,0,0,1-.567,0Z" fill="#f8f8f8"/>
      <path d="M372,423.506c0-.22.178-.608.4-.608h5.616c.221,0,.4.386.4.608l-1.2,3.462c0,.222-.18.653-.4.653H373.6c-.221,0-.4-.431-.4-.653Z" fill="#f8f8f8"/>
      <path d="M366.41,418.742a.4.4,0,0,1,.566,0l3.973,3.972a.4.4,0,0,1,0,.566l-3.122,1.42a.4.4,0,0,1-.567,0l-2.269-2.27a.4.4,0,0,1,0-.567Z" fill="#f8f8f8"/>
      <path d="M366.184,411.277c.22,0,.608.179.608.4V417.3c0,.221-.386.4-.608.4l-3.462-1.2c-.222,0-.653-.18-.653-.4v-3.21c0-.221.432-.4.653-.4Z" fill="#f8f8f8"/>
      <path d="M370.949,405.692a.4.4,0,0,1,0,.567l-3.972,3.972a.4.4,0,0,1-.566,0l-1.42-3.123a.4.4,0,0,1,0-.567l2.27-2.269a.4.4,0,0,1,.567,0Z" fill="#f8f8f8"/>
    </g>
    <!-- Wheel -->
    <g id="Logo1">
      <path d="M435.707,302.864a28.672,28.672,0,1,0,28.668,28.672A28.671,28.671,0,0,0,435.707,302.864Zm0,8.886c9.361,0,17.321,4.891,20.273,14.336H415.433C418.386,316.641,426.344,311.75,435.707,311.75Zm-5.165,40.613a21.273,21.273,0,0,1-16.035-16.832h6.865c4.948,0,9.17,3.6,9.17,8.55Zm5.165-17.243a3.584,3.584,0,1,1,3.583-3.584A3.582,3.582,0,0,1,435.707,335.12Zm5.46,17.243v-8.282a8.547,8.547,0,0,1,8.876-8.55h6.863A20.927,20.927,0,0,1,441.167,352.363Z" fill="#f8f8f8"/>
      <path d="M451.792,294.944a20.5,20.5,0,0,1,20.322,20.516h3.213a23.753,23.753,0,0,0-23.535-23.73Z" fill="#f8f8f8"/>
      <path d="M451.792,300.273a13.637,13.637,0,0,1,10.53,4.432,13.8,13.8,0,0,1,4.462,10.755h3.207a18.4,18.4,0,0,0-18.2-18.393Z" fill="#f8f8f8"/>
      <path d="M451.792,305.6a9.858,9.858,0,0,1,9.661,9.856h3.2a12.648,12.648,0,0,0-3.843-9.247,12.508,12.508,0,0,0-9.022-3.812Z" fill="#f8f8f8"/>
    </g>
  </g>
  <style> 
    #Charging_circle{
      -webkit-animation: rotating-function 5.25s linear infinite;
      animation: rotating-function 5.25s linear infinite;
      transform-origin: 512px 472px;
    }
    @keyframes rotating-function {
      from {
        -webkit-transform: rotate(0deg);
      }
      to {
        -webkit-transform: rotate(360deg);
      }
    }
  </style>
</svg>